<svg xmlns="http://www.w3.org/2000/svg" viewBox="0 0 600 160" width="600" height="160" fill="none">
  <style>@import url('https://fonts.googleapis.com/css2?family=Manrope:wght@600;800&amp;display=swap');
    .w{font-family:'Manrope',Arial,sans-serif;}</style>
  <rect x="10" y="24" width="112" height="112" rx="28" fill="#03105b"/>
  <text x="66" y="113" font-size="74" font-weight="800" letter-spacing="-2" fill="#ffffff" text-anchor="middle" class="w">E</text>
  <path transform="translate(97,33) scale(1.0)" d="M12 2C8.5 2 7 4 5.5 4S3 2.8 2.4 4.2C1.6 6.2 2.4 10 3.2 13c.6 2.4 1 5 2 6.6.5.8 1.4.8 1.8-.1.6-1.3.9-3.2 1.3-4.6.2-.7 1.2-.7 1.4 0 .4 1.4.7 3.3 1.3 4.6.4.9 1.3.9 1.8.1 1-1.6 1.4-4.2 2-6.6.8-3 1.6-6.8.8-8.8C19.5 2.8 19 4 17.5 4S15.5 2 12 2Z" fill="#26c6da"/>
  <text x="146" y="99" font-size="66" font-weight="800" letter-spacing="-2.5" class="w"><tspan fill="#03105b">Ever</tspan><tspan fill="#26c6da">ident</tspan></text>
  <text x="149" y="129" font-size="16" font-weight="600" letter-spacing="4" fill="#6b7280" class="w">DENTAL CLINIC · POZNAŃ</text>
</svg>
